<svg height="64" viewBox="0 0 64 64" width="64" xmlns="http://www.w3.org/2000/svg"><path d="m49.29 5.68c-.29-2.51-6.29-2.81-9.7-2.81a22.8 22.8 0 0 0 -11.59 2.81 13.83 13.83 0 0 0 -6.83 9.4c-.6 2.64.12 10.3.12 10.48a42.41 42.41 0 0 1 -5 .24c-1.37.06-1.67.66-1.79 1s.6 10.36.6 10.36l.41 3.59c.78.42 4.62.24 5.27.36s.9 1 1 3.54.42 12.15.48 14.13 1 2 3.12 2 10.47.3 11 .3 1-.6 1-2.45.6-17.49.66-17.85 1.32 0 2.4 0 6.22-.36 7.12-.48 1.26-9.46 1.26-12.51-2-3.18-3.23-3.24-7.25.18-7.61-.06 1.02-4.86 3.02-5.81 6.83-.42 7.43-.3 1-1.26 1.08-2.34.08-7.84-.22-10.36zm-4.29 20.03a5.09 5.09 0 0 1 1.28 1.35c.24.39-.12 1.08-.21 1.14a14.31 14.31 0 0 1 -1.22-1.86c-.14-.24.04-.63.15-.63zm3.08-11.29c-.54.06-5.87-.47-8.86.6a7.87 7.87 0 0 0 -4.85 5.81c-.18 1.68-.24 4.79.24 4.79s4.73.09 6.34.15 2.49 0 2.64.18a43.36 43.36 0 0 1 2.41 3.62c0 .21-.23 1.29-.35 1.14s-2.25-3.83-2.4-3.68-.54.72-.27 1.11 2.55 3.8 2.52 4-.3 1-.45.75-2.73-4.61-2.88-4.55-.57.63-.36 1 3 4.22 3 4.43 0 1.79-.21 1.73-2.7-4.76-3.12-4.76-.57.81-.33 1.11 3.21 4.64 3.21 4.73-.69.51-.93.33-2.66-4.79-2.9-4.79-.9.3-.69.63 2.54 4.07 2.42 4.1a.85.85 0 0 1 -.9-.18c-.33-.36-2.21-3.65-2.45-3.59s-.69.57-.45.87 2.34 2.9 2.1 3a4.17 4.17 0 0 1 -1.53-.09c-.09-.12-1.29-2.45-1.56-2.45s-.63.41-.48.68a17.5 17.5 0 0 1 1 1.74c-.09 0-2.78-.15-2.87.18s.15 2.55 0 2.46-1.35-2.49-1.53-2.49-.51.69-.39 1 2 2.54 2 2.78.06 2-.06 1.77a32.18 32.18 0 0 0 -2-3.32 2 2 0 0 0 -.36 1c.06.18 2.46 3.54 2.52 3.78a9.62 9.62 0 0 1 0 2.33c-.12-.18-2.7-5-2.91-5s-.39 1-.27 1.38 3.06 4.79 3.09 5 .06 1.44-.06 1.35-3.27-5.84-3.42-5.75a2.07 2.07 0 0 0 -.18 1.29c.09.35 3.6 5.74 3.63 5.86a11.68 11.68 0 0 1 -.15 2.4c-.12-.12-3.66-6.29-3.87-6.26s-.36 1.11-.21 1.38 4.14 5.9 4.17 6.2.15 1.76 0 1.7-4.35-7-4.5-7-.35 1-.29 1.16 4.67 7.18 4.67 7.42 0 .45-.3.45a1 1 0 0 1 -.84-.24c-.27-.27-4.13-6.62-4.4-6.56s-.33 1.08-.24 1.41 4.19 5.42 4 5.48-5.57-.33-6-.33a2.76 2.76 0 0 1 -.78-.12s.18-.24-.33-.78-1.25-1.41-1.58-1.2-.21.57 0 .78 1 .84.89 1a5.83 5.83 0 0 1 -2.39-.24c-.09-.21-.12-8.8-.18-11.8s-.21-7.27-.87-7.72-5.48-.58-5.75-.88-.84-9.76-.48-9.82 5 .12 5.75-.36a2.23 2.23 0 0 0 .84-2.39c-.12-1.08-.84-8.57.54-11.44a15.17 15.17 0 0 1 8.38-7.31c4.26-1.67 9.53-1.55 13.18-1.08s4 1.14 4.07 2.88.12 7.18-.42 7.24zm-24.63 12.28c-.21 0-.18.9-.18 1.23s-1.95.12-2.43.09-.94.1-.86.48c0 .15 0 .51.18.6s3.89.12 4.25.12.27-1.86.21-2.28-.96-.27-1.17-.24zm5.55-17.55a11 11 0 0 0 -3.86 3.75 8.54 8.54 0 0 0 -1.44 4.4c0 1.2.17 2 .39 2.09s.57 0 .84 0 0-3.44 1.55-6.16a6.73 6.73 0 0 1 4.25-3.42c.39 0 .33-.6.24-1s-.97-.13-1.97.34zm7.17 5.85a3.07 3.07 0 0 0 -1.82.81 11.56 11.56 0 0 0 -1.74 2.85c-.18.57-.1 1.37.21 1.49a.91.91 0 0 0 .84-.15c.21-.15.21-1.34.69-2.36a5.25 5.25 0 0 1 2.09-1.8c.15-.16-.03-.84-.27-.84zm7-9.52c-.53-.1-.78.93-.51 1a23.33 23.33 0 0 0 2.61.45c.51.06.83 0 1 .36s0 3.32.18 3.47 1.11.45 1.11-.33.12-4-.24-4.28-3.54-.59-4.17-.71zm-17.17 48.11c-.36.09-.48.33-.15 1a12.23 12.23 0 0 0 2.61 2.81c.3 0 .75-.36.45-.75s-2.44-3.18-2.91-3.06zm2.07-1c-.12-.09-.66.51-.54.72 0 0 2.49 3.23 2.82 3.68s.65.54 1 .36-.12-.72-.36-1.2a45.7 45.7 0 0 0 -2.9-3.55z" fill="#1d1d1b"/></svg>