<svg height="64" viewBox="0 0 64 64" width="64" xmlns="http://www.w3.org/2000/svg"><path d="m60.38 11.51c-.9-7.03-3.38-9.84-11.38-10.13s-25.77-.67-36.51 0-9.6 7.26-9.6 9.29c0 0-.73 24.69-.73 29.19s-.28 7.14 1.18 12.21 4.16 10.3 10.52 10.63 33 .51 39.43-.16 7.09-5.86 8.16-11.09-.17-32.91-1.07-39.94zm-1.46 17.67a10.74 10.74 0 0 1 .08 1.82s-2.93-2.93-3.32-2.54a1.49 1.49 0 0 0 -.23 1.19s3.49 2.3 3.49 2.58-.11 1.58-.11 1.58a30.12 30.12 0 0 0 -2.93-2.25c-.17.05-.39.79-.34 1s3.44 2.18 3.44 2.52v3.1s-2.87-2.87-3.1-2.93-.34 1.18-.34 1.18a41.13 41.13 0 0 1 3.27 3.1 17 17 0 0 1 .11 2.19s-2.94-2.81-3.11-2.81-.34 1.35-.34 1.35a36 36 0 0 1 3.2 3 13.34 13.34 0 0 1 .12 2.47 36.39 36.39 0 0 0 -3.15-2.36 2.69 2.69 0 0 0 .05 1.63 35.58 35.58 0 0 1 3.21 2.48c.06.28-.11 2.47-.11 2.47a32.82 32.82 0 0 0 -2.93-2.41c-.22 0-.34 1-.34 1s3.27 2.81 3.27 3a15.15 15.15 0 0 1 -.62 1.57s-3-3-3.21-3-.73.5-.73.67 3.09 3 2.93 3.32-.34.9-.57.9-2.92-2.59-3.09-2.59-.79 1-.79 1a24.47 24.47 0 0 1 2.65 2.59c-.17.12-1.41.68-1.41.68a29.08 29.08 0 0 0 -2.7-2.2c-.23 0-.73.74-.73.74l2.08 2a9.24 9.24 0 0 1 -1.63.4c-.23-.06-2.2-1.69-2.59-1.86s-1.46.34-1.46.34 2 1.68 1.74 1.85-12.38.57-19.58.45-17.1-.4-19.63-1.6-5.23-4.39-5.47-10.8.39-31.84.39-31.84c-.06-2-.11-7.21 1.74-8.95s5.59-2.53 12.57-2.59 24.86.28 30.15.45 8.21 1.93 8.83 4.93a132.67 132.67 0 0 1 1.13 15.1c-.17-.1-2.81-2.1-3.04-2.1s-.56 1.18-.34 1.3a24 24 0 0 1 3.43 2.7 14.76 14.76 0 0 1 .14 2.49s-2.92-3-3.15-2.87-.22 1.52-.22 1.52a38.07 38.07 0 0 1 3.29 3.04zm-5-10c.08-4.18-.4-7.89-2.92-9.86s-20.71-1.32-26.34-1.24-11.09.16-12.77 1.63a4.21 4.21 0 0 0 -1.58 3.29c-.16 2.19-1.18 30.32-.73 34.71s2.2 5.12 6 5.23 27.74.62 31.67.4 5-1.69 6-4.45.61-25.57.66-29.73zm-2.26 29.07c-.67 1.68-1.52 3-4.84 3.32s-23.06 0-27.84-.17-6-1.13-6-1.13.17-21.66.34-27.28-.23-10.13.56-10.58 6.58-1 17.61-1.07 17.51.23 18.51.66 2.26 2 2.26 9.11.08 25.45-.6 27.14zm-5.9-35.56c-5.18.79-3.89 5.8-2.09 7s6.19 1.35 6.64-2.2-1.71-5.23-4.55-4.8zm2.86 3.43c-.28 1.92-2 2.14-3.15 2s-3.54-3.26.57-4.33a2.1 2.1 0 0 1 2.58 2.33zm-19.8.23c-18.34 3.21-14.17 21.43-10.57 26.33s14.17 4.67 20 2.19 9.73-8 7.09-18.34-12.21-10.93-16.52-10.18zm11.7 24.92c-5.4 3.88-13.33 4.22-17.1 2.36s-7.48-6-6.64-12.88 5.29-12.09 12.15-12.83c3.87-.41 11.14 0 13.62 6.14s3.37 13.33-2.03 17.21zm-11.7-19.58c-8.72 2.2-8.94 7.49-8.21 13.11s10.52 6.86 15.69 4.61 6.92-5.85 5.52-11.19-7.9-7.81-13-6.53zm4.11 17c-5.06.57-8.66-.45-9.9-3.37s.45-8 6.75-9.62c3.87-1 9.17.5 10.46 4.5s-2.24 7.92-7.31 8.48z" fill="#1d1d1b"/></svg>