<svg height="64" viewBox="0 0 64 64" width="64" xmlns="http://www.w3.org/2000/svg"><path d="m62.81 30.21c-.8-4.49-2.68-14.9-11.14-21.54s-13.84-6.94-23.67-6.51c-9.33.4-16.91 5-20.2 9.53s-10.7 19.66-4.26 30.54 11.35 15.57 18.93 17.92 18.12 3.69 28.93-4.15 12.22-21.29 11.41-25.79zm-2.21 1c-.47 7.11-5.31 18.59-14.77 23.43a29.78 29.78 0 0 1 -25 1.41 29.76 29.76 0 0 1 -16-13.9c-3.57-6.63-3.37-18.52 1.17-25.5s9.22-12.65 21.77-13.49c5.38-.34 13.63-.74 21.75 5.51s11.55 15.43 11.08 22.55zm-17.19-22.88a27.84 27.84 0 0 0 -20 0c-6.31 2.32-12.62 6.89-15 16.69s.27 15.17 5.73 21.34 13.16 8.42 21.44 7.61 12.8-4.79 17.36-12.66a23.59 23.59 0 0 0 2.37-17.81c-.67-2.95-4.2-12.44-11.9-15.17zm10.92 17.5c.58 2.91.27 13.91-5 19.42s-11.87 8.63-19.33 7.75-13.11-5.64-16.51-9.67-4.58-10.92-2.79-17.14 9.3-11.68 12.3-13.25c4.72-2.46 9-3.8 18.43-3s12.32 12.98 12.9 15.89zm-46.4-8.06c-.32 0-2 3.31-3.22 6.67s-.91 3.56-.63 3.71c.76.32.89-.8 1.16-1.88s1.39-3.53 2.11-5.86.89-2.64.58-2.64zm50.29 16.07c.63-.14.85-1.48 1.12-4.21a14.64 14.64 0 0 0 -.89-6.44c-.32-.32-1.15 0-1.3.27s.4 1.56.45 4.83a28.67 28.67 0 0 1 -.49 5.14c.04.45.49.57 1.11.41zm-25-17.59c-3.89 1.34-10.82 3.58-11.27 4s-1 14.14-1 14.14a5 5 0 0 0 -4.61 6.35 5.8 5.8 0 0 0 6.8 4.08c3.31-.68 4.34-3.09 5-5.06s.4-11.23.49-11.9 7.79-3.23 8.1-3.23.27 7.12.27 7.12a4.69 4.69 0 0 0 -6 3.31c-.4 2.15-.44 8.14 4.61 8s6.89-2.91 7.79-4.74.89-15.4.94-18.26-.34-4.61-1.6-5.06-5.59-.09-9.49 1.25zm8.46.36c.09 1.21 0 20-.31 19.87s-1-1.39-1.21-1.3-.85.49-.54.76a5 5 0 0 1 1.12 1.75c0 .22-.36 1.07-.58.94s-1.7-2.24-1.92-2-.81.18-.36.67 1.48 1.75 1.16 2.06-.71.58-.8.4a23.41 23.41 0 0 0 -1.93-2.86c-.18 0-.71.49-.53.81s1.29 1.83 1 1.88-.53.08-.62-.09a14.31 14.31 0 0 0 -1.79-2.29c-.27-.09-.76.41-.58.59s.94 1.61.71 1.61a2.35 2.35 0 0 1 -1.92-1.48c-.67-1.34-.31-4 1.21-4.7a5.91 5.91 0 0 1 3.84-.09c.63.18.68-.62.68-1s-.14-10-.18-10.42a10.81 10.81 0 0 0 -2.06-3.18c-.4-.14-1.16-.09-.72.4s2.28 2.87 1.84 2.87-1.61-.09-1.61-.09-1.39-2.51-1.75-2.38-.85.54-.49.85 1.52 1.39 1.16 1.48-1.16.67-1.3.45-1.2-1.79-1.74-1.79-.9.31-.67.54 1.52 1.7 1.21 1.74-1.12.27-1.12.27-1-1.7-1.26-1.7-1 .36-.76.67a16.11 16.11 0 0 1 .94 1.48s-4.11 1-4.07 1.74 0 12.08-.13 13-1.93 3.44-4.3 3.31-3.76-.8-3.94-2.28a3.5 3.5 0 0 1 3.76-3.49c.91.05 1.17-.4 1.17-1.17s.53-12.79.94-13.15 10.33-4.12 13.55-4.66 4.84-1.23 4.93-.02z" fill="#232021"/></svg>