<svg height="64" viewBox="0 0 64 64" width="64" xmlns="http://www.w3.org/2000/svg"><path d="m60.09 16.68c-5.31-14.08-25.3-16.83-31.32-15.3-3.88 1-16.73 1.93-23 13.77s-7.24 29 4.08 39.17 27.64 12 40.8 2.14 14.74-25.7 9.44-39.78zm-.23 19.71c-.08.23-1.07 2.45-1.07 2.45s-4.75-6-5-6-.54.91-.39 1.14 4.93 6.02 4.93 6.02l-1.33 2.13s-4.13-5.59-4.44-5.66-.92.46-.69.69 4.59 5.58 4.36 6a16.35 16.35 0 0 1 -1.91 2s-3.49-5.16-3.72-5.25-1.07.69-.84 1.15 3.67 5.2 3.44 5.51-1.91 2.06-1.91 2.06-2.83-4.82-3.14-4.89-1.14.91-.91 1.07 3.44 4.59 3.29 4.89a14 14 0 0 1 -1.92 1.53l-2.83-4.36-1.07 1s2.53 4.05 2.45 4.44-2.22 1.53-2.22 1.53l-2.52-4.44s-1.08.53-1.08.76 2.53 4.59 2.53 4.59l-1.87.84s-2.3-4.59-2.53-4.66-1.07-.16-.92.46 2.07 4.82 2.07 4.82l-1.91.61s-2.07-4.21-2.3-4.36-1.22.23-1.07.46 2.3 4.59 2 4.66-2.68.31-2.68.31a40.62 40.62 0 0 0 -2-4.13c-.23-.08-1 .15-.92.53s1.42 3.71 1.42 3.71h-2.07a31.83 31.83 0 0 0 -1.68-3.13c-.31-.31-1.3.23-1.07.46s1.38 2.83 1.15 2.9a26.44 26.44 0 0 1 -18.21-6.42c-8.42-7.2-9.72-18.29-8.57-25s6.5-18.04 16.75-21.63c3.61-1.27 10.18-4.44 20.74-1.84a28.44 28.44 0 0 1 16.8 11.66 19.87 19.87 0 0 1 1.61 4.21s-3.52-4.52-4.06-4.59-.84.76-.61 1.14 4.67 4.75 5 5.28a28.47 28.47 0 0 1 .92 3.75s-4-5.2-4.44-5.28-.76.77-.61 1 5.2 5.74 5.28 6 .46 3.44.46 3.44-4.82-5.73-5.13-5.81-.53 1.07-.53 1.07 5.28 5.82 5.35 6.12.15 3.29.15 3.29-5-6.12-5.43-6.12-.46 1.3-.46 1.3 5.44 6.36 5.36 6.59zm-44.86-22.11a15.18 15.18 0 0 1 6.27-4.9s-.46-1-.77-1.07-3.06.92-6.42 4.52-4.23 6.23-4.06 6.65a1.45 1.45 0 0 0 1.53.62c.45-.23.8-2.22 3.45-5.82zm27.87 2.22c-1.75.15-25.7 11.09-28.84 13s-2.52 4-1.76 5.05 8.26 2.9 8.26 2.9c.54.39 4.82 9.34 5.51 9.41s5.36-6.35 5.82-6.5 2.83.84 4.44 1.38 5.27 2.14 6.57 1.07 3.52-17.06 4.06-21.5-2.3-4.96-4.06-4.81zm1.46 3.29a16.64 16.64 0 0 1 -1.33 1.63l-.2-1.32 1.37-1.38a4.47 4.47 0 0 1 .16 1.07zm-31 12.32c.37-1.39 3.6-2.45 7.12-4.36s22.12-9.87 22.65-9.95.16.61.16.61-21.65 17.59-22.04 17.59-8.57-1.29-7.88-3.89zm28.85-9.72c-.11.15-1.79 2-1.79 2a11.43 11.43 0 0 1 -.39-2.15s1.69-1.53 1.74-1.38a6 6 0 0 1 .45 1.53zm-2.45 3.37-1.38 1.78-1-3.11s1.65-1.43 1.65-1.27.74 2.6.74 2.6zm-7.14 2.7c.15-.1 1.27-1.28 1.37-1.12a32.93 32.93 0 0 1 1.43 4.38c-.1.21-1 1.33-1 1.33zm1.12 5.61-1 1.07-2-5.1c.15-.15 1-.87 1-.87zm1.12-7.75c.21-.16 1.23-1.12 1.23-1.12l1.27 3.52-1.12 1.53zm-8.83 18.87s-3.81-8.06-3.76-8.19l1.76-1.25s3.26 7.81 3.16 8.16-1.16 1.28-1.16 1.28zm2.11-2.19s-3.21-7.81-3.11-8.11a4.74 4.74 0 0 1 1.17-1.07c.15 0 3.11 7.6 3.06 7.8a11.07 11.07 0 0 1 -1.12 1.38zm1.68-2.35c-.1-.2-2.85-7.19-2.7-7.45a4.27 4.27 0 0 1 .92-.76l2.45 7.19s-.57 1.17-.67.97zm1.07-3.16s-2-5.56-1.88-5.92a2.45 2.45 0 0 1 1-.82 33.32 33.32 0 0 1 2.09 5.16 16 16 0 0 1 -1.21 1.53zm10.41 4c-1.07.54-9.18-2.6-9.18-2.91s12.77-17.87 13.23-18.33c.27-.25-2.98 20.66-4.05 21.19z" fill="#1d1d1b"/></svg>