<?xml version="1.0" standalone="no"?>
<!DOCTYPE svg PUBLIC "-//W3C//DTD SVG 20010904//EN"
 "http://www.w3.org/TR/2001/REC-SVG-20010904/DTD/svg10.dtd">
<svg version="1.0" xmlns="http://www.w3.org/2000/svg"
 width="2250.000000pt" height="2250.000000pt" viewBox="0 0 2250.000000 2250.000000"
 preserveAspectRatio="xMidYMid meet">
<metadata>
Created by potrace 1.11, written by Peter Selinger 2001-2013
</metadata>
<g transform="translate(0.000000,2250.000000) scale(0.100000,-0.100000)"
fill="#000000" stroke="none">
<path d="M7346 18341 c-6 -9 -436 -2482 -436 -2506 0 -13 45 -15 314 -15 l314
0 12 73 c18 114 19 115 45 60 12 -26 42 -67 66 -90 64 -61 126 -85 234 -91
159 -8 280 37 402 152 216 202 349 535 383 960 30 368 -69 630 -275 732 -66
32 -86 37 -169 42 -80 4 -106 1 -163 -17 -80 -26 -151 -75 -193 -133 -22 -29
-30 -36 -30 -22 0 10 32 202 71 426 39 225 69 415 65 423 -5 13 -49 15 -320
15 -173 0 -317 -4 -320 -9z m641 -1285 c35 -42 46 -99 40 -221 -6 -135 -28
-236 -74 -335 -69 -150 -163 -200 -235 -122 -37 40 -48 83 -48 189 0 192 59
391 141 476 48 49 48 50 100 45 41 -4 58 -11 76 -32z"/>
<path d="M13930 18327 c-9 -21 -440 -2464 -440 -2493 0 -12 51 -14 330 -14
255 0 332 3 335 13 11 27 443 2503 438 2510 -2 4 -151 7 -329 7 -325 -1 -325
-1 -334 -23z"/>
<path d="M14930 18328 c-9 -22 -440 -2464 -440 -2494 0 -12 51 -14 330 -14
255 0 332 3 335 13 3 6 104 572 224 1257 158 900 216 1247 208 1252 -7 4 -155
8 -330 8 l-317 0 -10 -22z"/>
<path d="M9164 18012 c-6 -4 -26 -96 -44 -204 l-34 -198 -113 0 c-109 0 -113
-1 -118 -22 -2 -13 -23 -124 -45 -248 -23 -124 -43 -233 -46 -242 -5 -16 5
-18 111 -18 115 0 115 0 110 -22 -3 -13 -32 -175 -65 -360 -78 -438 -80 -551
-11 -686 71 -139 249 -222 476 -222 93 0 219 15 274 33 l36 12 47 250 c26 138
47 255 48 261 0 8 -22 10 -69 6 -129 -9 -181 31 -181 138 0 30 22 174 48 320
l47 265 145 5 144 5 40 222 c23 122 44 224 47 227 3 3 48 -380 101 -852 l95
-857 -35 -68 c-20 -39 -50 -80 -70 -95 -31 -24 -44 -27 -111 -27 -42 0 -92 4
-111 8 l-36 8 -57 -292 c-42 -219 -53 -295 -44 -301 59 -36 395 -43 518 -10
199 53 373 190 501 392 19 30 60 102 91 160 55 104 907 1983 907 2001 0 5
-143 9 -339 9 l-339 0 -16 -47 c-9 -27 -96 -277 -194 -558 l-177 -510 -3 558
-2 557 -480 0 c-264 0 -480 1 -480 3 0 1 15 90 34 197 19 107 32 198 29 202
-6 10 -614 10 -629 0z"/>
<path d="M13045 17644 c-273 -58 -520 -304 -645 -643 -59 -160 -75 -266 -74
-481 0 -168 3 -206 22 -275 70 -256 224 -413 452 -461 91 -19 284 -14 375 10
70 19 184 75 199 98 10 16 -4 66 -115 431 l-30 97 -32 -17 c-18 -9 -55 -17
-84 -17 -64 -1 -98 22 -133 90 -22 43 -25 60 -24 149 3 166 62 313 157 389 33
27 47 31 97 31 45 0 65 -5 88 -22 23 -17 32 -19 40 -10 30 38 312 498 312 509
0 15 -79 70 -133 92 -112 45 -332 59 -472 30z"/>
<path d="M7279 13680 c-15 -4 -37 -18 -50 -31 -33 -33 -35 -133 -4 -165 83
-86 180 -236 226 -349 13 -33 26 -62 29 -65 3 -3 16 -39 29 -80 12 -41 27 -86
32 -100 10 -30 41 -171 63 -289 18 -94 38 -125 92 -140 66 -18 136 18 154 79
9 30 -6 182 -20 215 -5 11 -12 40 -15 65 -10 67 -86 313 -120 387 -8 17 -15
36 -15 42 0 6 -4 11 -9 11 -5 0 -12 14 -16 30 -4 17 -11 30 -16 30 -5 0 -9 5
-9 12 0 11 -77 147 -89 158 -3 3 -17 21 -31 40 -58 84 -115 140 -152 150 -37
11 -43 11 -79 0z"/>
<path d="M13544 13481 c-77 -13 -145 -70 -174 -148 -20 -53 -20 -76 -19 -3311
0 -3018 2 -3260 17 -3304 20 -56 72 -114 122 -137 32 -14 216 -16 1970 -19
1333 -2 1951 1 1986 8 67 14 124 57 155 116 l24 48 0 3295 0 3296 -34 50 c-42
63 -89 94 -160 106 -64 10 -3823 10 -3887 0z m3846 -3456 l0 -3225 -1895 2
-1895 3 0 3215 c0 1768 0 3218 0 3223 0 4 853 7 1895 7 l1895 0 0 -3225z"/>
<path d="M14852 13102 c-32 -25 -62 -73 -62 -100 0 -48 31 -93 77 -113 42 -18
77 -19 626 -19 545 0 585 2 623 19 83 38 97 138 28 199 l-37 32 -616 0 c-573
0 -618 -2 -639 -18z"/>
<path d="M14023 12763 c-13 -2 -23 -9 -23 -14 0 -5 -6 -9 -13 -9 -7 0 -29 -17
-50 -37 -73 -75 -67 134 -67 -2469 0 -1807 3 -2354 12 -2389 16 -58 69 -116
132 -144 l49 -21 1429 0 1429 0 47 21 c61 27 89 53 118 111 l24 47 0 2369 c0
2349 0 2369 -20 2410 -26 54 -60 87 -115 112 -43 20 -62 20 -1487 19 -794 -1
-1453 -4 -1465 -6z m2852 -2533 l0 -2305 -1382 -3 -1383 -2 0 2310 0 2310
1383 -2 1382 -3 0 -2305z"/>
<path d="M15415 7511 c-52 -13 -137 -74 -168 -120 -9 -14 -27 -57 -38 -95 -20
-67 -20 -71 -4 -130 23 -80 36 -105 80 -148 63 -61 118 -83 210 -82 70 0 86 4
130 29 75 45 117 94 144 169 18 52 22 78 17 116 -14 101 -74 189 -163 238 -47
25 -155 37 -208 23z"/>
<path d="M5695 12930 c-209 -16 -363 -36 -600 -80 -66 -12 -110 -33 -138 -64
-15 -17 -18 -33 -15 -84 2 -35 9 -66 14 -70 6 -4 34 -46 61 -93 28 -47 71
-115 96 -150 24 -35 63 -92 87 -126 24 -35 46 -63 51 -63 4 0 10 -8 13 -17 17
-49 109 -123 154 -123 61 0 122 64 122 130 0 40 -32 100 -81 150 -9 9 -31 39
-49 66 -19 27 -39 54 -45 61 -27 32 -35 43 -35 47 0 3 -13 25 -30 49 -47 69
-58 62 140 86 47 6 121 15 166 21 103 13 433 13 521 0 38 -6 97 -14 133 -19
171 -25 335 -75 469 -145 31 -16 66 -34 78 -40 13 -6 23 -14 23 -18 0 -5 6 -8
13 -8 11 0 84 -49 132 -88 97 -78 109 -84 166 -80 74 5 119 50 119 119 0 52
-24 82 -130 160 -58 43 -110 83 -117 89 -7 5 -17 10 -22 10 -5 0 -16 6 -23 14
-14 13 -207 111 -263 133 -69 26 -156 53 -174 53 -11 0 -22 4 -25 9 -4 5 -30
12 -59 16 -28 4 -69 11 -90 16 -117 30 -486 52 -662 39z"/>
<path d="M9385 12859 c-22 -4 -74 -12 -115 -18 -108 -14 -192 -31 -212 -41
-10 -6 -24 -10 -33 -10 -44 0 -352 -123 -375 -149 -3 -3 -22 -15 -44 -26 -21
-10 -60 -35 -86 -55 -26 -19 -58 -42 -70 -50 -12 -8 -28 -20 -34 -25 -6 -6
-27 -21 -46 -34 -54 -36 -72 -66 -72 -121 0 -42 5 -54 34 -85 30 -32 39 -36
86 -37 49 0 83 15 128 57 6 5 22 17 34 25 12 8 42 30 66 48 23 17 47 32 52 32
5 0 14 6 20 13 6 7 46 30 89 51 72 35 96 46 163 75 26 11 99 31 205 57 242 60
722 65 1020 12 105 -18 103 -12 39 -107 -54 -82 -110 -160 -136 -191 -44 -51
-88 -111 -88 -120 0 -5 -4 -10 -10 -10 -5 0 -10 -21 -10 -47 0 -84 73 -144
156 -129 34 7 55 24 97 80 12 16 30 37 40 47 9 11 17 24 17 29 0 6 4 10 8 10
5 0 20 17 33 38 14 20 52 75 85 122 33 47 90 135 127 196 56 93 67 119 67 155
-1 75 -56 122 -154 134 -33 4 -66 11 -75 16 -18 9 -117 25 -256 40 -49 5 -115
14 -146 19 -66 12 -546 11 -604 -1z"/>
<path d="M6415 11909 c-147 -16 -332 -51 -366 -69 -9 -5 -34 -12 -54 -16 -21
-4 -50 -13 -64 -20 -14 -8 -34 -14 -43 -14 -9 0 -19 -4 -22 -9 -3 -5 -18 -12
-33 -15 -34 -8 -177 -78 -181 -88 -2 -5 -10 -8 -17 -8 -13 0 -237 -147 -290
-190 -16 -13 -75 -70 -131 -125 -81 -81 -113 -123 -170 -220 -59 -100 -151
-280 -185 -360 -4 -11 -17 -41 -28 -67 -12 -26 -21 -51 -21 -56 0 -5 -7 -23
-15 -38 -8 -16 -15 -36 -15 -44 0 -9 -4 -20 -9 -25 -5 -6 -16 -35 -24 -65 -8
-30 -22 -82 -32 -115 -16 -56 -23 -85 -61 -260 -9 -38 -20 -104 -25 -145 -6
-41 -15 -91 -20 -110 -15 -50 -5 -396 14 -505 26 -153 38 -209 47 -230 5 -11
12 -36 15 -55 4 -19 22 -81 41 -138 19 -56 34 -109 34 -117 0 -8 5 -15 10 -15
6 0 10 -7 10 -16 0 -15 11 -45 45 -119 8 -16 24 -52 36 -80 33 -78 118 -244
129 -255 3 -3 11 -16 18 -30 6 -14 18 -34 24 -45 25 -39 143 -220 150 -230 48
-63 154 -203 163 -212 5 -6 39 -46 75 -88 76 -91 295 -312 377 -382 31 -26 64
-55 73 -63 40 -36 82 -70 185 -147 61 -45 118 -89 127 -97 10 -9 20 -16 23
-16 6 0 65 -40 75 -50 3 -3 14 -10 25 -17 11 -7 44 -27 73 -45 78 -48 163 -97
192 -111 14 -6 27 -14 30 -18 5 -5 285 -144 325 -160 37 -15 120 -50 140 -59
56 -26 343 -120 366 -120 10 0 20 -4 24 -9 3 -6 27 -13 53 -17 26 -3 53 -11
60 -17 19 -15 187 -20 267 -8 64 9 123 20 290 51 33 6 69 15 80 20 11 5 40 13
65 19 25 5 70 17 100 26 30 9 78 23 105 31 28 7 59 18 70 23 11 5 43 17 70 26
28 10 70 26 95 37 25 10 54 23 65 28 154 66 427 201 445 220 3 3 39 25 80 50
41 24 81 49 88 56 6 7 21 16 32 19 11 3 20 11 20 16 0 5 5 9 10 9 14 0 72 41
83 58 4 6 14 12 22 12 7 0 15 3 17 8 2 4 35 32 73 62 174 136 359 314 525 506
69 80 260 342 260 357 0 3 16 29 35 58 19 30 35 59 35 65 0 7 4 14 9 16 8 3
91 162 129 248 10 25 26 61 35 80 8 19 23 60 33 90 11 30 21 57 24 60 6 5 18
44 56 180 37 130 53 203 60 262 4 35 10 68 14 73 12 16 35 298 35 425 0 132
-22 405 -35 435 -4 11 -13 54 -19 95 -16 114 -87 389 -111 432 -6 10 -10 23
-10 30 -1 7 -9 31 -20 53 -11 22 -19 48 -20 57 0 9 -4 19 -9 22 -5 3 -12 17
-15 32 -9 34 -101 226 -140 289 -110 181 -270 354 -471 508 -52 40 -105 77
-109 77 -2 0 -28 16 -58 35 -60 41 -220 120 -261 130 -15 4 -30 11 -33 16 -3
5 -13 9 -22 9 -9 0 -29 6 -43 14 -14 7 -43 16 -64 20 -20 4 -45 11 -54 16 -21
11 -148 39 -231 51 -160 22 -284 30 -400 24 -118 -5 -156 -10 -290 -35 -153
-28 -176 -33 -185 -40 -5 -5 -28 -11 -49 -16 -22 -4 -51 -13 -65 -20 -14 -8
-32 -14 -39 -14 -7 0 -20 -4 -30 -10 -9 -5 -46 -21 -82 -35 -36 -14 -74 -30
-85 -35 -37 -18 -139 -33 -220 -33 -112 0 -177 14 -290 64 -23 10 -53 21 -68
24 -15 4 -30 11 -33 16 -3 5 -13 9 -22 9 -9 0 -29 6 -43 14 -14 7 -43 16 -64
20 -20 4 -45 11 -54 16 -9 5 -47 16 -86 24 -217 48 -465 66 -650 45z m470
-272 c142 -24 298 -68 400 -112 17 -8 51 -23 77 -34 26 -12 53 -21 60 -21 8 0
18 -4 23 -9 6 -4 53 -16 105 -26 143 -26 378 -12 480 29 19 8 73 30 120 49 47
19 110 43 140 52 30 9 64 21 75 26 11 4 43 13 70 18 28 6 70 15 95 21 122 28
653 20 684 -11 6 -5 20 -9 31 -9 20 0 136 -32 180 -50 11 -4 53 -20 93 -36 40
-15 75 -31 78 -36 3 -4 14 -8 24 -8 10 0 25 -6 32 -12 7 -7 31 -22 53 -33 107
-54 260 -170 370 -281 135 -136 205 -232 275 -380 29 -60 58 -121 66 -136 8
-14 14 -32 14 -40 1 -7 9 -31 20 -53 11 -22 19 -48 20 -57 0 -9 4 -19 9 -22 5
-4 12 -25 16 -49 4 -23 11 -47 15 -52 13 -16 62 -218 86 -355 27 -150 33 -231
33 -435 0 -282 -24 -467 -84 -665 -8 -25 -17 -61 -21 -80 -3 -19 -10 -39 -14
-45 -4 -5 -11 -26 -15 -45 -4 -19 -11 -39 -14 -45 -4 -5 -16 -32 -25 -60 -32
-87 -117 -267 -171 -360 -19 -33 -40 -69 -45 -80 -33 -62 -42 -75 -51 -75 -5
0 -9 -6 -9 -13 0 -8 -10 -25 -21 -38 -12 -13 -29 -35 -38 -49 -9 -14 -19 -29
-24 -35 -4 -5 -24 -33 -45 -60 -128 -173 -368 -419 -531 -543 -41 -32 -106
-80 -145 -109 -39 -29 -75 -56 -81 -60 -28 -22 -126 -83 -134 -83 -5 0 -11 -4
-13 -9 -4 -11 -261 -151 -276 -151 -7 0 -12 -4 -12 -10 0 -5 -5 -10 -12 -10
-10 0 -37 -11 -133 -55 -70 -32 -123 -54 -175 -71 -30 -11 -57 -22 -60 -26 -3
-3 -23 -9 -45 -13 -22 -4 -53 -13 -70 -20 -37 -15 -128 -41 -175 -50 -19 -3
-44 -10 -55 -15 -23 -10 -117 -28 -360 -70 -59 -10 -140 -5 -160 10 -5 4 -28
11 -50 14 -36 7 -109 28 -160 46 -11 5 -60 20 -108 36 -49 15 -90 32 -93 36
-3 4 -13 8 -22 8 -9 1 -35 9 -57 20 -22 11 -43 19 -47 20 -19 1 -239 107 -363
176 -44 24 -88 47 -97 50 -10 4 -18 10 -18 14 0 4 -8 10 -17 13 -22 7 -72 37
-91 55 -7 6 -18 12 -23 12 -6 0 -16 6 -23 13 -8 6 -24 19 -36 27 -12 8 -33 23
-45 33 -13 9 -27 17 -32 17 -5 0 -16 8 -24 18 -9 9 -26 24 -39 32 -34 23 -113
83 -128 97 -7 7 -16 13 -20 13 -4 0 -26 17 -48 38 -23 20 -73 64 -110 97 -90
79 -233 222 -314 314 -36 40 -72 81 -81 91 -9 9 -48 59 -88 111 -39 52 -76
100 -81 106 -11 14 -45 64 -108 163 -23 36 -45 70 -49 75 -5 6 -19 33 -33 60
-14 28 -27 52 -30 55 -12 12 -140 283 -140 297 0 3 -6 19 -14 36 -7 18 -24 61
-36 97 -12 36 -26 74 -30 85 -5 11 -11 34 -15 50 -3 17 -12 53 -19 80 -22 79
-46 194 -57 275 -16 107 -22 339 -10 380 5 19 14 71 20 115 12 87 34 201 44
225 3 8 12 47 20 85 8 39 22 95 31 125 9 30 22 73 28 95 6 22 14 42 17 45 3 3
14 30 25 60 19 58 28 80 70 172 14 31 26 62 26 67 0 6 4 11 9 11 5 0 12 14 16
30 4 17 10 30 14 30 3 0 12 12 18 28 17 38 66 123 102 177 17 25 31 48 31 51
0 12 149 148 204 186 17 12 33 25 36 28 24 28 231 146 330 188 72 31 222 80
265 88 22 4 45 10 50 14 6 4 42 11 80 15 39 3 86 10 105 15 52 13 381 4 485
-13z"/>
<path d="M7758 11067 c-35 -30 -48 -58 -48 -104 1 -48 11 -67 85 -145 68 -73
88 -97 130 -153 17 -22 33 -41 38 -43 4 -2 7 -8 7 -13 0 -5 16 -32 35 -59 19
-27 35 -54 35 -60 0 -5 4 -10 9 -10 5 0 13 -10 16 -22 4 -11 20 -42 35 -68 15
-26 31 -58 35 -71 4 -13 11 -26 14 -29 3 -3 17 -32 29 -65 13 -33 27 -67 31
-75 4 -8 18 -49 30 -90 13 -41 29 -93 36 -115 21 -62 57 -247 76 -395 14 -109
14 -627 0 -745 -33 -271 -61 -429 -119 -675 -12 -47 -26 -107 -32 -135 -7 -27
-16 -54 -21 -59 -24 -26 1 -111 43 -148 25 -22 70 -31 108 -23 58 13 93 63
121 175 34 136 76 328 93 425 7 39 15 77 18 85 6 14 11 53 37 275 41 337 41
577 1 895 -15 114 -56 333 -73 380 -3 8 -24 76 -48 150 -24 74 -46 137 -50
140 -4 3 -10 20 -14 38 -3 17 -11 32 -16 32 -5 0 -9 6 -9 13 0 13 -108 229
-119 237 -3 3 -12 15 -18 28 -31 54 -39 67 -48 78 -5 6 -17 22 -25 34 -80 118
-227 288 -279 322 -38 26 -109 23 -143 -5z"/>
</g>
</svg>
