<svg height="64" viewBox="0 0 64 64" width="64" xmlns="http://www.w3.org/2000/svg"><path d="m59.24 27.2c-.53-4-2.21-7-4.35-10.93s-6-6.67-8.74-8.61-6.53-2.83-10.15-3.19-8.18-.38-11.22.42c-4.26 1.11-6.97 2.27-9.85 4.89a37 37 0 0 0 -6.83 8.22 28.49 28.49 0 0 0 -3.41 9.74 28.38 28.38 0 0 0 .74 8.71c.78 3.47 2.57 6.68 5.05 10.55s6.05 6.32 10.14 8.8 12.68 4.36 15.93 3.9a24.9 24.9 0 0 0 12.32-5.21c4.59-3.63 7.14-9.64 8.54-13.39s2.37-9.92 1.83-13.9zm-6.46 17.05a34.19 34.19 0 0 1 -2-3.45 5.34 5.34 0 0 1 .8-1.68 38.23 38.23 0 0 1 1.92 3.45 7.88 7.88 0 0 1 -.72 1.68zm-6.78-21.25a1.18 1.18 0 0 1 -.1-.5 6.21 6.21 0 0 0 .4-2.61c-.16-1.18-.68-3.06-.64-3.12a11 11 0 0 1 3.34 4.31 24.27 24.27 0 0 1 2.6 8.4c.38 3.65.2 6.35-1.1 8.8a21 21 0 0 1 -3 4.59 7 7 0 0 1 -2.4 1.44c-.18 0-.82-3.23-1.32-4.25s-1.39-2.36-1.37-2.58a15.8 15.8 0 0 0 2-2.13 12.7 12.7 0 0 0 2.14-6.73 29.91 29.91 0 0 0 -.55-5.62zm8.25 18.5a16.81 16.81 0 0 1 -2.19-3.68c.18-.18.78-2.09.9-2.17a23.59 23.59 0 0 1 2.09 3.75 9.13 9.13 0 0 1 -.8 2.1zm2.75-9.82c-.26-.22-1.92-3.94-2.14-4s-.72.78-.6 1.1 2.32 3.93 2.38 4.27a5.57 5.57 0 0 1 -.22 1.82 21.13 21.13 0 0 0 -1.92-3.47c-.2 0-.73.69-.71.81s2.17 4.12 2.17 4.38-.3 1.89-.48 1.59-2.27-3.77-2.31-3.87 0-4.87-.2-7a18.4 18.4 0 0 0 -4-9.82c-3-3.45-6.12-5.83-10.67-6.9a33.66 33.66 0 0 0 -10.77-.89 15.76 15.76 0 0 0 -11.72 7c-3.37 4.88-3.87 6.23-4.63 9.75s.08 8.72.7 11a17.4 17.4 0 0 0 4.12 7.18 18.46 18.46 0 0 0 10.61 4.37 9.76 9.76 0 0 0 0-3.15c-.12-.32-.22-.48-1-.44a7.09 7.09 0 0 1 -2.95-.38 4.84 4.84 0 0 1 -2.06-2.03 17.22 17.22 0 0 0 -1.6-2.46c-.38-.42-1.17-1.14-1.07-1.28a4.89 4.89 0 0 1 2.63 0 19.63 19.63 0 0 1 3.55 2 8.66 8.66 0 0 0 2.08 1.17c.34 0 1-1.59 1.34-2s1-1.66.7-1.94-2.14-.36-3.06-.6a7.76 7.76 0 0 1 -3.75-2.67 9.5 9.5 0 0 1 -1.7-5.45c0-1.62 1.6-4.73 1.92-5.35s.74-1.2.54-1.42a7.2 7.2 0 0 1 -1.26-2.25 6.19 6.19 0 0 1 .66-3 11.62 11.62 0 0 1 1.81.28 9.79 9.79 0 0 1 2.92.94c.6.4.82.6 1.16.6s3-.6 3.87-.8a17.15 17.15 0 0 1 4.55-.32c1 .2 2.5 1.1 2.76.94a4.6 4.6 0 0 1 2.13-1.62 9.4 9.4 0 0 1 3.71-.24 8 8 0 0 1 .44 3.7c-.2 1.17-.54 1.85-.34 2.17a6.84 6.84 0 0 1 .66 4.39c-.5 1.92-1.22 4.65-3.59 6.47a22.7 22.7 0 0 1 -3.43 2.3c-.28.18 0 .73.26.95a8.15 8.15 0 0 1 2.87 4 16.88 16.88 0 0 1 1 4.73c0 .54.62.76 1.1.66a5.08 5.08 0 0 0 1.81-1 20.88 20.88 0 0 1 3.16-2.1c.16.08 1.53 3 1.87 3.12a.48.48 0 0 0 .62-.34 23.69 23.69 0 0 0 -1.38-2.92c-.3-.58-.52-.92-.44-1.1s.76-1 .9-.85 1.62 2.47 1.88 2.87.46.48.18 1a13.35 13.35 0 0 1 -1.74 2.17c-.48.42-.66.94-.94.72s-1.67-2.73-1.89-2.77-.82.5-.76.68 1.9 2.89 1.9 3a8.24 8.24 0 0 1 -1.88 2c-1 .74-1.58 1.19-1.76.94s-2.05-4.62-2.35-4.68-.92.16-.82.52 2.39 4.39 2.37 4.59-.75.68-1 .48-2.64-5.17-2.94-5.21-.82.1-.82.58 3.12 4.89 3 5.13-.72.78-.94.56-3.07-5.91-3.27-5.95-.92.16-.92.3 3.23 6.13 3.21 6.27-1.26.74-1.54.6-3.1-6.39-3.32-6.51-1.1.46-1 .54 3.5 6 3.32 6.33a1.12 1.12 0 0 1 -1.12.26c-.14-.14-3.35-6.27-3.57-6.33s-.9.28-.84.54 3.41 5.85 3.31 5.89a2.92 2.92 0 0 1 -1.1 0c-.14-.1-3-4.63-3.39-4.73s-.78.44-.78.56 2.78 4.11 2.64 4.15a3.58 3.58 0 0 1 -1.3-.21c-.2-.12-2.12-3.52-2.38-3.59s-.88.37-.8.57 2 2.76 1.72 2.76a3 3 0 0 1 -1.16-.14c-.28-.16-1.59-2.84-1.83-2.92s-.72.28-.74.38 1 2 .8 2a2.63 2.63 0 0 1 -1.12-.16c-.18-.14-1.4-2.18-1.58-2.24s-.76.26-.7.44.64 1.06.44 1.08a23.18 23.18 0 0 1 -6.47-2.62c-2.27-1.56-6.4-6.19-7.68-7.56s-3.05-5.7-3.67-8a32.46 32.46 0 0 1 -.76-7.53 30.41 30.41 0 0 1 2.23-8.2 45.38 45.38 0 0 1 6-8.11 22.93 22.93 0 0 1 9-5.63 28.48 28.48 0 0 1 8.14-1.25 40.5 40.5 0 0 1 11 1.53c2.71.92 7.78 4.91 9 6.35a29.92 29.92 0 0 1 3.67 5.89 14.91 14.91 0 0 1 1.38 3.35c-.18-.14-1.3-2.09-1.52-2.07s-.7.36-.62.62 2.12 3.41 2.32 3.81a9.72 9.72 0 0 1 .42.94c0 .08.28 2.81.2 2.67a36.8 36.8 0 0 0 -2.28-3.75c-.26-.1-.46.3-.4.4s2.7 4.59 2.7 4.81.1 2.07-.13 1.85zm-36.24-8.55c.42.4-.54 1-1.22 2.54a12.66 12.66 0 0 0 -.94 6.23 9.63 9.63 0 0 0 3.1 5.52c1.91 1.66 4.51 1.76 4.79 1.9s-.48 1.14-.64 1.34-.14.16-.52 0-2.55-2.06-4.83-2.54a4.88 4.88 0 0 0 -4.17.64c-.5.44.06 1.24.7 1.72a9.59 9.59 0 0 1 2.31 3.09 4.4 4.4 0 0 0 3 2.62 10.55 10.55 0 0 0 2.95.56c.24 0 .18.71 0 1s-.78-.39-1.7-.65a14.86 14.86 0 0 1 -3.59-1 20.27 20.27 0 0 1 -4.63-5.79c-.58-1.58-1.8-5.13-1.82-6.91a24.76 24.76 0 0 1 .54-7.08 24.78 24.78 0 0 1 4.57-8.65 16.11 16.11 0 0 1 10.7-5.13c5-.54 9.38 1 12.12 1.9s3.37 1.52 3.37 1.7a27.39 27.39 0 0 1 -3 .3 6 6 0 0 0 -3.63 1.41c-.08.14-2.28-.36-4.58-.54a19.61 19.61 0 0 0 -5.58.84 3.76 3.76 0 0 1 -1.3-.36 35.46 35.46 0 0 0 -5.43-1.19c-.48 0-1.54 1.33-1.76 3.27a3.77 3.77 0 0 0 1.19 3.26zm16.24-16.92c-3.57-.5-5.86-.27-6-.12a.63.63 0 0 0 .2 1.07 45.14 45.14 0 0 1 5.39 0 27.14 27.14 0 0 1 5.33 1.36c.44 0 .7-.7.46-1s-1.8-.82-5.38-1.31zm-26.46 13.35c-2.83 2.93-3.35 6.79-3.54 8.1s.62 1.88 1 1.7 0-1.3.89-4.23a16 16 0 0 1 2.48-4.73c.35-.74-.63-1.05-.83-.84zm13.05 11.36a5.57 5.57 0 0 1 .12-2.92c.2-.94-.69-.9-.91-.68-.58.58-.8 2.42-.58 3.56a5.93 5.93 0 0 0 1.78 3.12c.54.26 1.06-.08.94-.64s-1.03-1.6-1.35-2.44zm-3.25 9.2c-.88.58 0 1.16.34 1.16s.72-.14.56-.7a.63.63 0 0 0 -.9-.46zm1.82 1.58c-.64.36-.06 1.17.36 1.19a.74.74 0 0 0 .78-.71c.02-.42-.86-.64-1.14-.48zm2.49 1.11c-.9.2-.6 1.08-.16 1.14a.77.77 0 0 0 .94-.56c.12-.46-.21-.7-.78-.58zm16-23c.2 0 .8.12 1.08.12s.26 1.64.4 2.13.88.52 1.16.24-.1-2.95-.3-3.21-2.13.1-2.38.16-.13.57.07.59zm5.35 31.65c.2 0 .72-.2.76-.5a25.07 25.07 0 0 0 -1.64-4c-.14-.08-1.06.22-1.06.39a22.43 22.43 0 0 0 1.94 4.11z" fill="#1d1d1b"/></svg>