<svg height="64" viewBox="0 0 64 64" width="64" xmlns="http://www.w3.org/2000/svg"><path d="m8.57 21.38c1.68 1.08 4.87 1.12 7 1s5.31-2.71 5.51-7.18a8.35 8.35 0 0 0 -3-6.83c-3.83-3.27-9.1-1.4-10.22-.72s-4.16 3.35-3.32 7.07 2.03 5.38 4.03 6.66zm-1.49-11.62c.83-1.16 2.58-2.37 5.92-1.86a6.37 6.37 0 0 1 5.24 3.38 5 5 0 0 1 .88 2.72s-2.19-3.77-2.51-3.71-.81.68-.57 1.07 2.72 3.72 2.63 4-.18.92-.3.74-2.09-3.8-2.37-3.74a.74.74 0 0 0 -.45 1c.18.48 2.33 3.38 2.24 3.5s-.48.66-.6.48-1.75-3.48-2.08-3.34a.68.68 0 0 0 -.39 1c.21.54 2 2.87 1.86 3s-.45.48-.6.39-1.86-2.84-2.13-2.81-.81.59-.51.95 1.83 2.31 1.65 2.4a5.22 5.22 0 0 1 -1.5.24c-.18-.06-1-1.95-1.29-1.95s-.83.42-.74.78 1.13 1.26.83 1.38a10.14 10.14 0 0 1 -4.76-1.38c-1.37-1-2.87-4.83-.45-8.24zm2.07 6.94c.24-.24.21-.33.21-.63s-.81-.86-1-1.34a3.3 3.3 0 0 1 .66-2.61c.69-.72.87-1.2.3-1.43s-1.8.5-2.07 2.09a4.91 4.91 0 0 0 .48 3.56c.52.6 1.17.66 1.42.36zm3 11.08a25.37 25.37 0 0 0 -4.22-.12c-.39.06-.51 4.49-.45 5s0 1.23.39 1.26a3.47 3.47 0 0 0 .84 0c.18-.06.3-4.46.39-4.79s3.29-.06 3.44-.21a.81.81 0 0 0 -.43-1.14zm7.76-2.72c-1.2-.45-7.4-.6-9.52-.63s-4.54-.09-4.85.42-.12 9-.24 14.67-.52 14.28-.3 14.61 3.62 2.78 3.89 3 1 .3 2.79.27 7.78.27 8.5.09 1.53-.45 1.77-.95.29-3.12.41-9 1-13.74.84-16.85-2.13-5.18-3.33-5.63zm.06 7.39c-.18-.06-1.86-2.84-2.16-2.51s-.39.63 0 1.17a33.33 33.33 0 0 1 2.1 3.44 6.58 6.58 0 0 1 0 1.76c-.12 0-2.16-3.26-2.4-3.14a1 1 0 0 0 -.51.83c.06.18 2.67 3.59 2.73 4.19s0 1.47-.12 1.32-2-4-2.37-3.77a1.08 1.08 0 0 0 -.35 1.31c.26.45 2.57 3.72 2.63 3.9s0 1.61-.15 1.52-2.13-3.77-2.43-3.74-.59.78-.47 1.2 2.93 4.1 2.87 4.52 0 2-.18 1.92-2.49-4.37-2.7-4.37-.63.75-.51 1.08 3.08 5.21 3.11 5.63 0 2.73-.21 2.61-2.85-5.42-3.32-5.45-.51.89-.42 1.16 3.5 5.57 3.59 5.87a.59.59 0 0 1 -.33.75c-.33.15-.48.12-.51 0s-2.63-4.67-3-4.82-.72.48-.69.63 3.12 4.31 2.83 4.54a1.35 1.35 0 0 1 -1.34.09c-.21-.21-2.82-4.73-3.12-4.73s-.89.78-.69 1 2.76 3.83 2.52 3.83-1.08.27-1.29.09-2.21-3.56-2.54-3.53-.63.42-.6.51 2 2.81 1.8 2.87a3.34 3.34 0 0 1 -1.23 0c-.15-.09-1.44-2.57-1.68-2.63s-.75.44-.75.59 1.59 2 1.23 2.07a10.78 10.78 0 0 1 -2.31-.16 2.2 2.2 0 0 1 -.77-1.29c0-.57.18-26.35.45-26.85a71.46 71.46 0 0 1 8.05.26c2.72.21 4.52-.14 4.91.33a5.47 5.47 0 0 1 .36 2.74c-.15-.15-1.2-2.22-1.56-2.13a1 1 0 0 0 -.45 1.2c.18.39 1.92 2.88 2 3.17s.12 1.08-.06 1.02zm39.46 2.79a10.83 10.83 0 0 0 -5.24-8.48c-2.9-1.85-7.81-2.36-11.14-1.67s-6.82 3.74-6.94 3.71 0-2.58-.12-3.2-1.23-.54-4.07-.57-6.69 0-6.74.24c-.15.66.12 13.77.15 18.5s-.21 9.91 0 10.51 2.12 2.81 2.84 2.81 7.63-.09 8.83-.27 1.19-1.25 1.19-2.78 0-13 .48-16.68 3.39-5 5.72-4.37 2.73 3.21 3.21 6.38-.42 12.19-.45 13.17.12 3.87.65 4.08 8.72 0 9.92 0 1.61-.21 1.79-1 .15-16.62-.12-20.38zm-4.43-2.14c.1.16 2.81 4.51 2.81 4.87s0 1.24-.13 1.14-1.88-3.43-2.22-3.43-.78.69-.64 1 2.7 4.16 2.72 4.46a9.52 9.52 0 0 1 0 2 42.28 42.28 0 0 0 -2.56-4.13c-.22 0-.46.68-.46 1s2.86 4.71 2.88 4.85 0 2.89-.24 2.85a10 10 0 0 1 -1.82-3c-.74-1.58-.84-2-1.2-2s-.24 1.28-.16 1.58 2.84 4.91 2.88 5.15.08 2.29-.16 2.12-2.7-5.5-3.02-5.56-.68.83-.6 1 3.06 5.15 3.14 5.87 0 1.13-.22 1.13-.32-.14-.42-.34-2.8-4.79-2.93-4.81-.56.84-.4 1.1 2.59 3.87 2.45 3.91a4.56 4.56 0 0 1 -1.28 0c-.12-.08-2.17-3.21-2.31-3.21s-.68.68-.58.86 1.74 2.25 1.54 2.31a2.24 2.24 0 0 1 -1.1 0c-.12-.12-1.32-2.29-1.62-2.27s-.56.63-.5.75 1.22 1.66.9 1.74-1.32.14-1.32 0 .57-4.04.57-7.29a58.2 58.2 0 0 0 -.56-9c-.36-2.23-.6-4.37-2.17-5.25a6.63 6.63 0 0 0 -6.39 0 9.25 9.25 0 0 0 -3.17 3.18 2.23 2.23 0 0 0 -.36 1s-1.1-1.95-1.52-1.41-.46.88-.3 1 1.34 1.13 1.38 1.55a15.17 15.17 0 0 1 0 2.48c-.1 0-1.5-2.76-1.82-2.6s-.4 1.2-.36 1.32a32.35 32.35 0 0 1 1.82 2.93 8.42 8.42 0 0 1 -.08 1.74 33.46 33.46 0 0 0 -2.16-3.37 1.52 1.52 0 0 0 -.52 1c0 .23 2.8 4.35 2.82 4.55a9.56 9.56 0 0 1 -.18 2.47c-.18 0-2.4-4.51-2.56-4.51a1.83 1.83 0 0 0 -.64 1.12c.06.26 3.08 4.87 3.16 5.19a13.73 13.73 0 0 1 0 2.73c-.1 0-3.17-6.31-3.37-6.31s-.76.82-.72.9 3.31 5.75 3.31 6-.08.32-.08.32-.24.08-.3 0-2.65-4.33-2.89-4.39-.86.62-.72.82a41.28 41.28 0 0 1 2.59 3.63 2.88 2.88 0 0 1 -1.37 0c-.12-.08-2-3.43-2.22-3.39a1.92 1.92 0 0 0 -.72.92c0 .1 1.84 2.53 1.82 2.59a2.61 2.61 0 0 1 -1.12 0c-.1-.1-1.66-2.55-2-2.59s-.61.79-.49.89 1.45 1.86 1.21 1.86-2 .12-2-.32.34-9 .32-11.82-.3-15-.16-15.63c0-.13 5.61 0 6.54 0s1.54 0 1.62.14 0 4.68.28 4.83 1.18-.69 1.44-.91a17.81 17.81 0 0 1 4.37-2.7 16 16 0 0 1 8.72-1.18c2 .44 4.11 1.06 5.53 3a16.13 16.13 0 0 1 2.68 4.53c.25 1 .25 1.92.12 1.88s-1.8-4.14-2.26-4-.62 1-.52 1.16zm-22.52-5.45a27.21 27.21 0 0 0 -4-.14c-.24 0-.38.42-.34.58a1.18 1.18 0 0 0 .08.7 15.79 15.79 0 0 0 3.26.12c.3 0 .34 1.48.38 1.78s1 .08 1.15.06.14-.48.14-1.14a3.21 3.21 0 0 0 -.67-1.96zm11.52 1.7a.66.66 0 0 0 .14 1.1 14.75 14.75 0 0 1 4 1.67c1.2 1 1.24 3.72 1.26 4s.82.49 1.18.1.2-2.36-1.1-4.62-5.29-2.39-5.48-2.25z" fill="#1d1d1b"/></svg>