<svg height="64" viewBox="0 0 64 64" width="64" xmlns="http://www.w3.org/2000/svg"><path d="m57.42 19.7a7 7 0 0 0 .8-1.95c.08-.72.08-1.56-.28-1.88s-1.79.2-2.95.56a33.52 33.52 0 0 1 -3.47.72s-1.44-4.27-3.76-5.95-5.39-1.72-8-1.12a15.07 15.07 0 0 0 -7.27 4c-1.47 1.75-2.75 5.27-3.19 6.66s-1.3 3.88-2.3 4.07-2.87-.51-4.47-1.51a80.86 80.86 0 0 1 -7.82-6.3c-2.08-1.92-5-5.23-6-5s-2.08 3.67-2.08 6.15 2.21 4.85 2.21 4.85a9.63 9.63 0 0 0 .48 7.18 8.08 8.08 0 0 0 2.68 2.82 7.26 7.26 0 0 0 .28 3.67c.4 1.2 2.48 2.72 2.48 2.72a10 10 0 0 1 -3.2 1.55c-2 .56-5.66 0-6.06 0s0 5.07 0 5.79a2.33 2.33 0 0 0 1.1 1.76 54.8 54.8 0 0 0 13 4.95 25.23 25.23 0 0 0 17.2-1.64c4.32-1.87 9-7.62 11.94-12.25a52.25 52.25 0 0 0 5-11.3 23.81 23.81 0 0 0 2.72-1.8 6.13 6.13 0 0 0 2.24-4.45 3.37 3.37 0 0 0 -1.28-2.3zm-3.59 2.68c.48 0 2.52-1.16 2.76-1s-.6 1.76-2.08 2.64a7.25 7.25 0 0 1 -2.87 1.23c-.28-.08-1.3-2.07-1.48-2s-.66.42-.54.69 1.29 1.82 1.17 2.06-.18.36-.36.21-1.29-2.51-1.59-2.57-.72.6-.54.9a16.38 16.38 0 0 1 1.62 2.51c0 .3-.36 1.68-.48 1.47a33 33 0 0 0 -2.13-3.52 1.45 1.45 0 0 0 -.51 1c.09.24 2.22 3.36 2.22 3.63s-.63 1.61-.84 1.37-2.06-4.22-2.24-4.22-.69.66-.66.84 2.39 4.16 2.45 4.46-.51 2-.72 1.89-2.12-4.97-2.36-4.97-.6.69-.51 1 2.34 4.59 2.37 4.94-.36 1-.48.9-2.55-6.1-2.76-6.07-.57.62-.36 1.31 2.67 5.18 2.7 5.54-.6 1.2-.69 1-2.67-5.84-2.92-5.78a1.3 1.3 0 0 0 -.35 1.32c.2.36 2.84 5 2.84 5.15s-.69 1.23-.87 1.14-2.38-5.39-2.62-5.36a.86.86 0 0 0 -.42 1.16c.27.6 2.6 4.59 2.51 4.85s-.72 1.17-.84 1-2.48-5.63-2.75-5.63-.93.6-.69 1.08 2.9 5.21 2.79 5.33-1.05 1.35-1.2 1.26-2.7-5.57-3-5.48-.66.51-.45.9 2.85 5 2.79 5.18-.72.75-.9.54-2.63-5.12-2.9-5.12-.84.78-.66 1.07a53.42 53.42 0 0 1 2.93 5c-.12.21-1 1-1.14.84s-2.33-4.67-2.78-4.64-.78.72-.57 1 2.46 4 2.46 4-1.08.66-1.26.45-2-4.37-2.19-4.37-1 .48-.63 1 2.16 3.65 2 3.8-.75.42-.93.21-2.02-4.52-2.17-4.52-.9.3-.72.6 2.09 4.19 2 4.25-1.28.42-1.43.27-1.77-3.62-2-3.62a.61.61 0 0 0 -.48.62c.06.21 1.77 3.21 1.68 3.27a4.24 4.24 0 0 1 -1.38.15c-.12-.09-1.65-3.68-1.89-3.74s-.77.41-.65.74a26.61 26.61 0 0 1 1.34 3.06c-.15.06-1.16.12-1.31-.09s-1.38-3.12-1.65-3.18-.75.09-.57.54 1.59 3 1.38 3a7.59 7.59 0 0 1 -1.47-.09c-.12-.09-1.35-3.06-1.56-3.12s-.9-.12-.78.27 1.44 2.67 1.2 2.67a4.77 4.77 0 0 1 -1.71-.41c-.21-.21-1.32-2.94-1.56-3s-.75.24-.69.6 1.14 2.31.87 2.25-1.5-.27-1.53-.42a18.85 18.85 0 0 0 -1.44-2.78c-.21-.12-.92 0-.74.35a10.23 10.23 0 0 1 .83 2 29.88 29.88 0 0 1 -5.27-2c-2.36-1.19-4.47-3.05-4.19-3.11s3.3.18 5.36-.6a23.55 23.55 0 0 0 4.25-1.82c.12-.24-.24-.78-.33-.81s-2.56-.85-3.14-2.64-.12-3.8-.45-4a5.88 5.88 0 0 1 -2.84-3.56c-.84-2.61.09-6.14-.09-6.38s-.47-.73-.76-.65-1.28-2-1.28-3.91a9.9 9.9 0 0 1 1-4.47c.2 0 5.55 5.19 8.38 7.58s6.15 4.87 8.11 5.19 2.75.4 3.67-1.47 1.84-6.47 3.27-8.54a12.27 12.27 0 0 1 8-5.11c3.71-.6 6.5.44 8 2.52s1.56 4.79 1.92 5 2 .16 3.87-.52a17 17 0 0 1 2.69-.89 4.75 4.75 0 0 1 -1.68 2.28c-1.24 1-2.12 1.75-2.12 2.23s.24.87.72.87zm-43.43-3.5c-.57-.45-.33-1.53-.18-2.31s-1.08-.6-1.29.27a2.89 2.89 0 0 0 .72 2.67c.69.59 1.33.56 1.52.41s-.17-.59-.77-1.04zm16.79 8.53c-.45-.06-1.55.54-2.72-.06s-2.31-2-2.82-1.83c-.35.13-.71.6.15 1.41a6.25 6.25 0 0 0 3.81 1.5c1.31 0 2.03-.96 1.58-1.02zm8.21-10.57c-.3-.09-1.56.75-2.16 1.8s-1.5 3.05-.81 3.44c.46.26.69-.06 1-1.2a11 11 0 0 1 1.49-2.88c.39-.53.78-1.07.48-1.16z" fill="#1d1d1b"/></svg>